<svg preserveAspectRatio="none" width="100%" height="100%" overflow="visible" style="display: block;" viewBox="0 0 16 16" fill="none" xmlns="http://www.w3.org/2000/svg">
<g id="Vector">
<path d="M6.5 1.5C6.5 0.671573 7.17157 0 8 0C8.82843 0 9.5 0.671573 9.5 1.5V14.5C9.5 15.3284 8.82843 16 8 16C7.17157 16 6.5 15.3284 6.5 14.5V1.5Z" fill="white"/>
<path d="M1.5 9.5C0.671573 9.5 3.62117e-08 8.82843 0 8C-3.62117e-08 7.17157 0.671573 6.5 1.5 6.5L14.5 6.5C15.3284 6.5 16 7.17157 16 8C16 8.82843 15.3284 9.5 14.5 9.5L1.5 9.5Z" fill="white"/>
</g>
</svg>
