<svg preserveAspectRatio="none" width="100%" height="100%" overflow="visible" style="display: block;" viewBox="0 0 20.8 20" fill="none" xmlns="http://www.w3.org/2000/svg">
<path id="Vector" d="M10.4 0C4.656 0 0 3.94 0 8.8C0 11.4944 1.43466 13.9028 3.68906 15.5172C3.74662 16.746 3.55622 18.4427 1.86094 19.225L1.85781 19.2266C1.78207 19.2554 1.71686 19.3065 1.67083 19.3732C1.62479 19.4399 1.60009 19.519 1.6 19.6C1.6 19.7061 1.64214 19.8078 1.71716 19.8828C1.79217 19.9579 1.89391 20 2 20C2.01148 20 2.02294 19.9995 2.03437 19.9984C3.9816 19.986 5.63462 18.9336 6.775 17.8219C7.1366 17.4691 7.6407 17.2955 8.1375 17.3891C8.8655 17.5275 9.6224 17.6 10.4 17.6C16.144 17.6 20.8 13.66 20.8 8.8C20.8 3.94 16.144 0 10.4 0ZM5.6 7.2C6.484 7.2 7.2 7.916 7.2 8.8C7.2 9.684 6.484 10.4 5.6 10.4C4.716 10.4 4 9.684 4 8.8C4 7.916 4.716 7.2 5.6 7.2ZM10.4 7.2C11.284 7.2 12 7.916 12 8.8C12 9.684 11.284 10.4 10.4 10.4C9.516 10.4 8.8 9.684 8.8 8.8C8.8 7.916 9.516 7.2 10.4 7.2ZM15.2 7.2C16.084 7.2 16.8 7.916 16.8 8.8C16.8 9.684 16.084 10.4 15.2 10.4C14.316 10.4 13.6 9.684 13.6 8.8C13.6 7.916 14.316 7.2 15.2 7.2Z" fill="white"/>
</svg>
