<svg preserveAspectRatio="none" width="100%" height="100%" overflow="visible" style="display: block;" viewBox="0 0 17.7379 16.146" fill="none" xmlns="http://www.w3.org/2000/svg">
<path id="Vector" d="M1.08273 16.146C0.64113 16.146 0.28273 15.7884 0.28273 15.346C0.28273 14.062 -2.67429 4.44291 10.5377 4.01331V0.800507C10.5377 0.477307 10.7329 0.184507 11.0313 0.061307C11.3305 -0.0634931 11.6745 0.00610695 11.9033 0.234907L17.5033 5.83491C17.8161 6.14771 17.8161 6.65331 17.5033 6.96611L11.9033 12.5661C11.6745 12.7949 11.3305 12.8637 11.0313 12.7397C10.7329 12.6165 10.5377 12.3237 10.5377 12.0005V8.81171C5.64171 8.94851 4.93233 9.47477 3.41633 11.4356C1.90033 13.3964 1.88273 15.3268 1.88273 15.346C1.88273 15.7884 1.52433 16.146 1.08273 16.146Z" fill="white"/>
</svg>
